# Blender v2.93.5 OBJ File: ''
# www.blender.org
mtllib engine3.mtl
o engine3_chassis.009
v -0.664415 0.330640 -1.632909
v -0.664415 0.334997 -1.473961
v -0.654259 0.316050 -1.624592
v -0.654259 0.319965 -1.481797
v -0.654259 0.330856 -1.624999
v -0.654259 0.334770 -1.482204
v -0.637908 0.329912 -1.659430
v -0.637908 0.335595 -1.452120
v -0.631479 0.315375 -1.649241
v -0.631479 0.320522 -1.461497
v -0.631479 0.330181 -1.649647
v -0.631479 0.335327 -1.461903
v -0.600152 0.240920 -1.515117
v -0.600152 0.251125 -1.609970
v -0.600152 0.302399 -1.508502
v -0.600152 0.312604 -1.603356
v -0.590338 0.239039 -1.497635
v -0.590338 0.242801 -1.532598
v -0.590338 0.249244 -1.592487
v -0.590338 0.253006 -1.627451
v -0.590338 0.300518 -1.491020
v -0.590338 0.304280 -1.525984
v -0.590338 0.310723 -1.585873
v -0.590338 0.314485 -1.620837
v -0.574458 0.239758 -1.504313
v -0.574458 0.242083 -1.525921
v -0.574458 0.249962 -1.599164
v -0.574458 0.252288 -1.620774
v -0.574458 0.301237 -1.497698
v -0.574458 0.303561 -1.519307
v -0.574458 0.311441 -1.592551
v -0.574458 0.313765 -1.614160
v -0.549329 0.315375 -1.649241
v -0.549329 0.320522 -1.461497
v -0.549329 0.330181 -1.649647
v -0.549329 0.335327 -1.461903
v -0.542315 0.329912 -1.659430
v -0.542315 0.335595 -1.452120
v -0.530124 0.316050 -1.624592
v -0.530124 0.319965 -1.481798
v -0.530124 0.330856 -1.624998
v -0.530124 0.334770 -1.482204
v -0.519968 0.330640 -1.632909
v -0.519968 0.334997 -1.473963
vt 0.000000 0.000000
vt 0.000000 0.000000
vt 0.000000 0.000000
vt 0.000000 0.000000
vt 0.000000 0.000000
vt 0.000000 0.000000
vt 0.000000 0.000000
vt 0.000000 0.000000
vt 0.000000 0.000000
vt 0.000000 0.000000
vt 0.000000 0.000000
vt 0.000000 0.000000
vt 0.000000 0.000000
vt 0.000000 0.000000
vt 0.000000 0.000000
vt 0.000000 0.000000
vt 0.000000 0.000000
vt 0.000000 0.000000
vt 0.000000 0.000000
vt 0.000000 0.000000
vt 0.000000 0.000000
vt 0.000000 0.000000
vt 0.000000 0.000000
vt 0.000000 0.000000
vt 0.000000 0.000000
vt 0.000000 0.000000
vt 0.000000 0.000000
vt 0.000000 0.000000
vt 0.000000 0.000000
vt 0.000000 0.000000
vt 0.000000 0.000000
vt 0.000000 0.000000
vt 0.000000 0.000000
vt 0.000000 0.000000
vt 0.000000 0.000000
vt 0.000000 0.000000
vt 0.000000 0.000000
vt 0.000000 0.000000
vt 0.000000 0.000000
vt 0.000000 0.000000
vt 0.000000 0.000000
vt 0.000000 0.000000
vt 0.000000 0.000000
vt 0.000000 0.000000
vn 0.0000 -0.9996 0.0274
vn 0.5476 0.5514 0.6294
vn -0.5349 0.3120 0.7852
vn -0.0404 -0.1069 0.9935
vn 0.9331 -0.0385 0.3576
vn 0.7354 0.6423 -0.2160
vn 0.6947 0.0769 -0.7151
vn -0.0371 0.4902 -0.8708
vn -0.5820 0.0870 -0.8085
vn -0.6529 0.7564 -0.0408
vn -0.9831 -0.0196 0.1818
vn 0.5475 0.5514 0.6295
vn 0.7354 0.6423 -0.2161
vn -0.9831 -0.0196 0.1819
usemtl chassis.3
s 1
f 4/1/1 3/2/1 9/3/1
f 4/1/1 9/3/1 10/4/1
f 29/5/2 21/6/3 17/7/4
f 29/5/2 17/7/4 25/8/5
f 30/9/6 29/5/2 25/8/5
f 30/9/6 25/8/5 26/10/7
f 22/11/8 30/9/6 26/10/7
f 22/11/8 26/10/7 18/12/9
f 15/13/10 22/11/8 18/12/9
f 15/13/10 18/12/9 13/14/11
f 21/6/3 15/13/10 13/14/11
f 21/6/3 13/14/11 17/7/4
f 29/5/2 30/9/6 15/13/10
f 29/5/2 15/13/10 21/6/3
f 15/13/10 30/9/6 22/11/8
f 31/15/12 23/16/3 19/17/4
f 31/15/12 19/17/4 27/18/5
f 32/19/13 31/15/12 27/18/5
f 32/19/13 27/18/5 28/20/7
f 24/21/8 32/19/13 28/20/7
f 24/21/8 28/20/7 20/22/9
f 16/23/10 24/21/8 20/22/9
f 16/23/10 20/22/9 14/24/14
f 23/16/3 16/23/10 14/24/14
f 23/16/3 14/24/14 19/17/4
f 31/15/12 32/19/13 16/23/10
f 31/15/12 16/23/10 23/16/3
f 16/23/10 32/19/13 24/21/8
f 34/25/1 33/26/1 39/27/1
f 34/25/1 39/27/1 40/28/1
f 44/29/1 38/30/1 36/31/1
f 44/29/1 36/31/1 42/32/1
f 37/33/1 43/34/1 41/35/1
f 37/33/1 41/35/1 35/36/1
f 43/34/1 44/29/1 42/32/1
f 43/34/1 42/32/1 41/35/1
f 38/30/1 8/37/1 12/38/1
f 38/30/1 12/38/1 36/31/1
f 7/39/1 37/33/1 35/36/1
f 7/39/1 35/36/1 11/40/1
f 8/37/1 2/41/1 6/42/1
f 8/37/1 6/42/1 12/38/1
f 2/41/1 1/43/1 5/44/1
f 2/41/1 5/44/1 6/42/1
f 1/43/1 7/39/1 11/40/1
f 1/43/1 11/40/1 5/44/1
