# Blender v2.93.5 OBJ File: ''
# www.blender.org
mtllib engine2.mtl
o engine2_chassis.008
v -0.610658 -0.195203 -1.812863
v -0.610658 0.011849 -1.812863
v -0.607692 -0.195962 -1.812863
v -0.607692 0.012608 -1.812863
v -0.574167 -0.195203 -1.876067
v -0.574167 -0.195203 -1.876067
v -0.574167 -0.195203 -1.749658
v -0.574167 0.011849 -1.876067
v -0.574167 0.011849 -1.876067
v -0.574167 0.011849 -1.749658
v -0.572684 -0.195962 -1.873498
v -0.572684 -0.195962 -1.873498
v -0.572684 -0.195962 -1.752227
v -0.572684 0.012608 -1.873498
v -0.572684 0.012608 -1.873498
v -0.572684 0.012608 -1.752227
v -0.502668 -0.195962 -1.873498
v -0.502668 -0.195962 -1.752227
v -0.502668 0.012608 -1.873498
v -0.502668 0.012608 -1.752227
v -0.501185 -0.195203 -1.876067
v -0.501185 -0.195203 -1.749658
v -0.501185 0.011849 -1.876067
v -0.501185 0.011849 -1.749658
v -0.467661 -0.195962 -1.812863
v -0.467661 0.012608 -1.812863
v -0.464694 -0.195203 -1.812863
v -0.464694 0.011849 -1.812863
v 0.464694 -0.195203 -1.812863
v 0.464694 0.011849 -1.812863
v 0.467661 -0.195962 -1.812863
v 0.467661 0.012608 -1.812863
v 0.501185 -0.195203 -1.876067
v 0.501185 -0.195203 -1.749658
v 0.501185 0.011849 -1.876067
v 0.501185 0.011849 -1.749658
v 0.502668 -0.195962 -1.873498
v 0.502668 -0.195962 -1.752227
v 0.502668 0.012608 -1.873498
v 0.502668 0.012608 -1.752227
v 0.572684 -0.195962 -1.873498
v 0.572684 -0.195962 -1.873498
v 0.572684 -0.195962 -1.752227
v 0.572684 0.012608 -1.873498
v 0.572684 0.012608 -1.873498
v 0.572684 0.012608 -1.752227
v 0.574167 -0.195203 -1.876067
v 0.574167 -0.195203 -1.876067
v 0.574167 -0.195203 -1.749658
v 0.574167 0.011849 -1.876067
v 0.574167 0.011849 -1.876067
v 0.574167 0.011849 -1.749658
v 0.607692 -0.195962 -1.812863
v 0.607692 0.012608 -1.812863
v 0.610658 -0.195203 -1.812863
v 0.610658 0.011849 -1.812863
v -0.552999 -0.169326 1.366809
v -0.552999 0.037727 1.366809
v -0.550033 -0.170085 1.366809
v -0.550033 0.038485 1.366809
v -0.516507 -0.169326 1.303604
v -0.516507 -0.169326 1.303604
v -0.516507 -0.169326 1.430012
v -0.516507 0.037727 1.303604
v -0.516507 0.037727 1.303604
v -0.516507 0.037727 1.430012
v -0.515024 -0.170085 1.306172
v -0.515024 -0.170085 1.306172
v -0.515024 -0.170085 1.427444
v -0.515024 0.038485 1.306172
v -0.515024 0.038485 1.306172
v -0.515024 0.038485 1.427444
v -0.445008 -0.170085 1.306172
v -0.445008 -0.170085 1.427444
v -0.445008 0.038485 1.306172
v -0.445008 0.038485 1.427444
v -0.443526 -0.169326 1.303604
v -0.443526 -0.169326 1.430012
v -0.443526 0.037727 1.303604
v -0.443526 0.037727 1.430012
v -0.410001 -0.170085 1.366809
v -0.410001 0.038485 1.366809
v -0.407034 -0.169326 1.366809
v -0.407034 0.037727 1.366809
v 0.407034 -0.169326 1.366809
v 0.407034 0.037727 1.366809
v 0.410001 -0.170085 1.366809
v 0.410001 0.038485 1.366809
v 0.443525 -0.169326 1.303604
v 0.443525 -0.169326 1.430012
v 0.443525 0.037727 1.303604
v 0.443525 0.037727 1.430012
v 0.445008 -0.170085 1.306172
v 0.445008 -0.170085 1.427444
v 0.445008 0.038485 1.306172
v 0.445008 0.038485 1.427444
v 0.515024 -0.170085 1.306172
v 0.515024 -0.170085 1.306172
v 0.515024 -0.170085 1.427444
v 0.515024 0.038485 1.306172
v 0.515024 0.038485 1.306172
v 0.515024 0.038485 1.427444
v 0.516507 -0.169326 1.303604
v 0.516507 -0.169326 1.303604
v 0.516507 -0.169326 1.430012
v 0.516507 0.037727 1.303604
v 0.516507 0.037727 1.303604
v 0.516507 0.037727 1.430012
v 0.550033 -0.170085 1.366809
v 0.550033 0.038485 1.366809
v 0.552999 -0.169326 1.366809
v 0.552999 0.037727 1.366809
vt 0.000558 0.003899
vt 0.000558 0.731008
vt 0.167038 0.731008
vt 0.167038 0.003899
vt 0.333519 0.731008
vt 0.333519 0.003899
vt 0.500000 0.731008
vt 0.500000 0.003899
vt 0.666481 0.731008
vt 0.666481 0.003899
vt 0.832961 0.731008
vt 0.832961 0.003899
vt 0.999442 0.731008
vt 0.999442 0.003899
vt 0.000558 0.003899
vt 0.167038 0.003899
vt 0.167038 0.731008
vt 0.000558 0.731008
vt 0.333519 0.003899
vt 0.333519 0.731008
vt 0.500000 0.003899
vt 0.500000 0.731008
vt 0.666481 0.003899
vt 0.666481 0.731008
vt 0.832961 0.003899
vt 0.832961 0.731008
vt 0.999442 0.003899
vt 0.999442 0.731008
vt 0.000558 0.003899
vt 0.167038 0.003899
vt 0.167038 0.731008
vt 0.000558 0.731008
vt 0.333519 0.003899
vt 0.333519 0.731008
vt 0.500000 0.003899
vt 0.500000 0.731008
vt 0.666481 0.003899
vt 0.666481 0.731008
vt 0.832961 0.003899
vt 0.832961 0.731008
vt 0.999442 0.003899
vt 0.999442 0.731008
vt 0.000558 0.003899
vt 0.000558 0.731008
vt 0.167038 0.731008
vt 0.167038 0.003899
vt 0.333519 0.731008
vt 0.333519 0.003899
vt 0.500000 0.731008
vt 0.500000 0.003899
vt 0.666481 0.731008
vt 0.666481 0.003899
vt 0.832961 0.731008
vt 0.832961 0.003899
vt 0.999442 0.731008
vt 0.999442 0.003899
vt 0.000558 0.003899
vt 0.000558 0.731008
vt 0.167038 0.731008
vt 0.167038 0.003899
vt 0.333519 0.731008
vt 0.333519 0.003899
vt 0.500000 0.731008
vt 0.500000 0.003899
vt 0.666481 0.731008
vt 0.666481 0.003899
vt 0.832961 0.731008
vt 0.832961 0.003899
vt 0.999442 0.731008
vt 0.999442 0.003899
vt 0.000558 0.003899
vt 0.167038 0.003899
vt 0.167038 0.731008
vt 0.000558 0.731008
vt 0.333519 0.003899
vt 0.333519 0.731008
vt 0.500000 0.003899
vt 0.500000 0.731008
vt 0.666481 0.003899
vt 0.666481 0.731008
vt 0.832961 0.003899
vt 0.832961 0.731008
vt 0.999442 0.003899
vt 0.999442 0.731008
vt 0.000558 0.003899
vt 0.167038 0.003899
vt 0.167038 0.731008
vt 0.000558 0.731008
vt 0.333519 0.003899
vt 0.333519 0.731008
vt 0.500000 0.003899
vt 0.500000 0.731008
vt 0.666481 0.003899
vt 0.666481 0.731008
vt 0.832961 0.003899
vt 0.832961 0.731008
vt 0.999442 0.003899
vt 0.999442 0.731008
vt 0.000558 0.003899
vt 0.000558 0.731008
vt 0.167038 0.731008
vt 0.167038 0.003899
vt 0.333519 0.731008
vt 0.333519 0.003899
vt 0.500000 0.731008
vt 0.500000 0.003899
vt 0.666481 0.731008
vt 0.666481 0.003899
vt 0.832961 0.731008
vt 0.832961 0.003899
vt 0.999442 0.731008
vt 0.999442 0.003899
vn 0.0000 0.0000 -1.0000
vn 0.3273 -0.0001 -0.9449
vn 0.6547 0.0001 -0.7559
vn 0.9820 -0.0001 -0.1890
vn 0.9820 0.0001 0.1890
vn 0.6547 0.0000 0.7559
vn 0.3273 -0.0000 0.9449
vn -0.3273 -0.0001 0.9449
vn -0.6547 -0.0000 0.7559
vn -0.9820 -0.0001 0.1890
vn -0.9820 0.0001 -0.1890
vn -0.8660 0.0000 -0.5000
vn 0.0000 0.0000 1.0000
vn -0.6547 -0.0001 0.7559
vn -0.3273 0.0000 0.9449
vn -0.9820 -0.0000 -0.1890
vn -0.9820 0.0000 0.1890
vn -0.3273 -0.0000 -0.9449
vn -0.6547 0.0001 -0.7559
vn 0.6547 -0.0000 -0.7559
vn 0.3273 0.0000 -0.9449
vn 0.9820 0.0002 0.1890
vn 0.8660 0.0000 0.5000
vn -0.6547 0.0000 -0.7559
vn 0.9820 0.0000 -0.1890
vn 0.9820 0.0000 0.1890
vn 0.8660 0.0000 -0.5000
vn -0.8660 0.0000 0.5000
vn 0.3273 0.0002 0.9449
vn -0.9820 0.0002 -0.1890
vn -0.6547 0.0001 0.7559
vn -0.6547 -0.0001 -0.7559
vn 0.6546 0.0001 -0.7559
vn 0.3273 0.0001 -0.9449
vn -0.6546 0.0000 -0.7559
usemtl chassis.7
s 1
f 6/1/1 9/2/1 23/3/2
f 6/1/1 23/3/2 21/4/3
f 21/4/3 23/3/2 28/5/4
f 21/4/3 28/5/4 27/6/5
f 27/6/5 28/5/4 24/7/6
f 27/6/5 24/7/6 22/8/7
f 22/8/7 24/7/6 10/9/8
f 22/8/7 10/9/8 7/10/9
f 7/10/9 10/9/8 2/11/10
f 7/10/9 2/11/10 1/12/11
f 1/12/11 2/11/10 8/13/12
f 1/12/11 8/13/12 5/14/12
f 12/15/13 17/16/14 19/17/15
f 12/15/13 19/17/15 15/18/13
f 17/16/14 25/19/16 26/20/17
f 17/16/14 26/20/17 19/17/15
f 25/19/16 18/21/18 20/22/19
f 25/19/16 20/22/19 26/20/17
f 18/21/18 13/23/20 16/24/21
f 18/21/18 16/24/21 20/22/19
f 13/23/20 3/25/22 4/26/4
f 13/23/20 4/26/4 16/24/21
f 3/25/22 11/27/23 14/28/23
f 3/25/22 14/28/23 4/26/4
f 48/29/1 33/30/24 35/31/18
f 48/29/1 35/31/18 51/32/1
f 33/30/24 29/33/17 30/34/16
f 33/30/24 30/34/16 35/31/18
f 29/33/17 34/35/15 36/36/9
f 29/33/17 36/36/9 30/34/16
f 34/35/15 49/37/6 52/38/7
f 34/35/15 52/38/7 36/36/9
f 49/37/6 55/39/25 56/40/26
f 49/37/6 56/40/26 52/38/7
f 55/39/25 47/41/27 50/42/27
f 55/39/25 50/42/27 56/40/26
f 42/43/13 45/44/13 39/45/7
f 42/43/13 39/45/7 37/46/6
f 37/46/6 39/45/7 32/47/26
f 37/46/6 32/47/26 31/48/25
f 31/48/25 32/47/26 40/49/20
f 31/48/25 40/49/20 38/50/21
f 38/50/21 40/49/20 46/51/18
f 38/50/21 46/51/18 43/52/24
f 43/52/24 46/51/18 54/53/16
f 43/52/24 54/53/16 53/54/17
f 53/54/17 54/53/16 44/55/28
f 53/54/17 44/55/28 41/56/28
f 62/57/1 65/58/1 79/59/2
f 62/57/1 79/59/2 77/60/20
f 77/60/20 79/59/2 84/61/4
f 77/60/20 84/61/4 83/62/26
f 83/62/26 84/61/4 80/63/6
f 83/62/26 80/63/6 78/64/29
f 78/64/29 80/63/6 66/65/15
f 78/64/29 66/65/15 63/66/9
f 63/66/9 66/65/15 58/67/17
f 63/66/9 58/67/17 57/68/30
f 57/68/30 58/67/17 64/69/12
f 57/68/30 64/69/12 61/70/12
f 68/71/13 73/72/31 75/73/8
f 68/71/13 75/73/8 71/74/13
f 73/72/31 81/75/16 82/76/17
f 73/72/31 82/76/17 75/73/8
f 81/75/16 74/77/18 76/78/32
f 81/75/16 76/78/32 82/76/17
f 74/77/18 69/79/33 72/80/34
f 74/77/18 72/80/34 76/78/32
f 69/79/33 59/81/5 60/82/25
f 69/79/33 60/82/25 72/80/34
f 59/81/5 67/83/23 70/84/23
f 59/81/5 70/84/23 60/82/25
f 104/85/1 89/86/24 91/87/18
f 104/85/1 91/87/18 107/88/1
f 89/86/24 85/89/17 86/90/16
f 89/86/24 86/90/16 91/87/18
f 85/89/17 90/91/15 92/92/9
f 85/89/17 92/92/9 86/90/16
f 90/91/15 105/93/6 108/94/7
f 90/91/15 108/94/7 92/92/9
f 105/93/6 111/95/25 112/96/26
f 105/93/6 112/96/26 108/94/7
f 111/95/25 103/97/27 106/98/27
f 111/95/25 106/98/27 112/96/26
f 98/99/13 101/100/13 95/101/7
f 98/99/13 95/101/7 93/102/6
f 93/102/6 95/101/7 88/103/26
f 93/102/6 88/103/26 87/104/25
f 87/104/25 88/103/26 96/105/20
f 87/104/25 96/105/20 94/106/21
f 94/106/21 96/105/20 102/107/18
f 94/106/21 102/107/18 99/108/35
f 99/108/35 102/107/18 110/109/16
f 99/108/35 110/109/16 109/110/17
f 109/110/17 110/109/16 100/111/28
f 109/110/17 100/111/28 97/112/28
