# Blender v2.93.5 OBJ File: ''
# www.blender.org
mtllib interior3.mtl
o interior3_chassis.011
v -0.316113 0.423662 -0.839392
v -0.316113 0.513578 -0.839392
v -0.309695 0.415366 -0.839392
v -0.309695 0.522523 -0.839392
v -0.215512 0.415366 -0.839392
v -0.215512 0.522523 -0.839392
v -0.208789 0.423662 -0.839392
v -0.208789 0.513578 -0.839392
vt 0.278119 0.387889
vt 0.296544 0.410623
vt 0.002423 0.410623
vt 0.020008 0.387888
vt 0.296544 0.657040
vt 0.278119 0.681553
vt 0.020008 0.681553
vt 0.002423 0.657040
vn 0.0000 0.0000 1.0000
usemtl chassis.6
s 1
f 5/1/1 7/2/1 1/3/1
f 5/1/1 1/3/1 3/4/1
f 8/5/1 6/6/1 4/7/1
f 8/5/1 4/7/1 2/8/1
f 7/2/1 8/5/1 2/8/1
f 7/2/1 2/8/1 1/3/1
