# Blender v2.93.5 OBJ File: ''
# www.blender.org
mtllib steer2.mtl
o steer2_movsteer_1.001
v -0.038999 -0.007744 0.056885
v -0.037914 -0.005161 0.061333
v -0.037914 -0.005161 0.061333
v -0.036379 0.008319 0.051255
v -0.035432 0.010649 0.055792
v -0.035432 0.010649 0.055792
v -0.030641 0.039544 0.038145
v -0.029839 0.041214 0.042914
v -0.029839 0.041214 0.042914
v -0.024658 0.062731 0.028536
v -0.024024 0.063796 0.033516
v -0.024024 0.063796 0.033516
v 0.000139 -0.007744 0.056885
v 0.000139 -0.005161 0.061333
v 0.000139 -0.005161 0.061333
v 0.000139 0.027516 0.048685
v 0.000139 0.062731 0.028536
v 0.000139 0.063796 0.033516
v 0.000139 0.063796 0.033516
v 0.024303 0.063796 0.033516
v 0.024303 0.063796 0.033516
v 0.024937 0.062731 0.028536
v 0.030118 0.041214 0.042914
v 0.030118 0.041214 0.042914
v 0.030919 0.039544 0.038145
v 0.035711 0.010649 0.055792
v 0.035711 0.010649 0.055792
v 0.036658 0.008319 0.051255
v 0.038194 -0.005161 0.061333
v 0.038194 -0.005161 0.061333
v 0.039278 -0.007744 0.056885
vt 0.616694 0.126742
vt 0.616694 0.046328
vt 0.696652 0.046328
vt 0.690541 0.085235
vt 0.618503 0.355253
vt 0.617849 0.359419
vt 0.612189 0.364585
vt 0.613229 0.358207
vt 0.628168 0.341246
vt 0.621509 0.341246
vt 0.617883 0.336601
vt 0.628168 0.336601
vt 0.619977 0.347197
vt 0.615508 0.345808
vt 0.628168 0.359419
vt 0.628168 0.364585
vt 0.616694 0.216021
vt 0.676780 0.160452
vt 0.662469 0.216021
vt 0.541357 0.085235
vt 0.535245 0.046328
vt 0.637833 0.355253
vt 0.643107 0.358207
vt 0.644147 0.364585
vt 0.638487 0.359419
vt 0.638453 0.336601
vt 0.634826 0.341246
vt 0.640828 0.345808
vt 0.636359 0.347197
vt 0.569428 0.216021
vt 0.555117 0.160452
vn 0.0000 0.3654 0.9308
vn 0.0000 0.3610 0.9326
vn -0.0164 0.3442 0.9387
vn -0.0172 0.3572 0.9339
vn 0.9735 0.2031 0.1054
vn 0.7282 -0.5005 0.4682
vn 0.7307 -0.5023 0.4623
vn 0.9734 0.2086 0.0947
vn 0.0000 0.9779 -0.2093
vn 0.7823 0.6220 -0.0328
vn 0.3912 0.9089 -0.1447
vn 0.9684 0.2357 0.0815
vn 0.9644 0.2543 0.0723
vn 0.0000 -0.8648 0.5021
vn -0.0000 0.3851 0.9229
vn 0.0005 0.3865 0.9223
vn 0.0000 0.3842 0.9232
vn 0.0173 0.3571 0.9339
vn 0.0164 0.3442 0.9387
vn -0.9735 0.2028 0.1058
vn -0.9734 0.2082 0.0951
vn -0.7303 -0.5024 0.4628
vn -0.7293 -0.4993 0.4677
vn -0.3912 0.9089 -0.1447
vn -0.7823 0.6221 -0.0328
vn -0.9644 0.2544 0.0725
vn -0.9684 0.2357 0.0816
vn -0.0005 0.3865 0.9223
usemtl door_rr_ok.002
s 1
f 16/1/1 15/2/2 30/3/3
f 16/1/1 30/3/3 27/4/4
f 26/5/5 29/6/6 31/7/7
f 26/5/5 31/7/7 28/8/8
f 19/9/9 21/10/10 22/11/11
f 19/9/9 22/11/11 17/12/9
f 21/10/10 24/13/12 25/14/13
f 21/10/10 25/14/13 22/11/11
f 24/13/12 26/5/5 28/8/8
f 24/13/12 28/8/8 25/14/13
f 31/7/7 29/6/6 14/15/14
f 31/7/7 14/15/14 13/16/14
f 18/17/15 16/1/1 23/18/16
f 18/17/15 23/18/16 20/19/17
f 16/1/1 27/4/4 23/18/16
f 16/1/1 6/20/18 3/21/19
f 16/1/1 3/21/19 15/2/2
f 5/22/20 4/23/21 1/24/22
f 5/22/20 1/24/22 2/25/23
f 19/9/9 17/12/9 10/26/24
f 19/9/9 10/26/24 12/27/25
f 12/27/25 10/26/24 7/28/26
f 12/27/25 7/28/26 9/29/27
f 9/29/27 7/28/26 4/23/21
f 9/29/27 4/23/21 5/22/20
f 1/24/22 13/16/14 14/15/14
f 1/24/22 14/15/14 2/25/23
f 18/17/15 11/30/17 8/31/28
f 18/17/15 8/31/28 16/1/1
f 16/1/1 8/31/28 6/20/18
